<svg xmlns="http://www.w3.org/2000/svg" xmlns:xlink="http://www.w3.org/1999/xlink" xmlns:lucid="lucid" width="1360" height="760"><g transform="translate(-60 20)" lucid:page-tab-id="0_0"><path d="M80 80h360v360H80z" stroke="#000" stroke-width="2" fill="#fff"/><path d="M80 118h360M80 327h360" stroke="#000" stroke-width="2" fill="none"/><use xlink:href="#a" transform="matrix(1,0,0,1,88,80) translate(149 22.6)"/><use xlink:href="#b" transform="matrix(1,0,0,1,92,125.6) translate(0 25.000000000000007)"/><use xlink:href="#c" transform="matrix(1,0,0,1,92,125.6) translate(10.95 25.000000000000007)"/><use xlink:href="#d" transform="matrix(1,0,0,1,92,125.6) translate(34.9 25.000000000000007)"/><use xlink:href="#e" transform="matrix(1,0,0,1,92,125.6) translate(0 46.60000000000001)"/><use xlink:href="#f" transform="matrix(1,0,0,1,92,125.6) translate(10.95 46.60000000000001)"/><use xlink:href="#g" transform="matrix(1,0,0,1,92,125.6) translate(93.66851851851852 46.60000000000001)"/><use xlink:href="#e" transform="matrix(1,0,0,1,92,125.6) translate(0 68.20000000000002)"/><use xlink:href="#h" transform="matrix(1,0,0,1,92,125.6) translate(10.95 68.20000000000002)"/><use xlink:href="#i" transform="matrix(1,0,0,1,92,125.6) translate(94.87222222222223 68.20000000000002)"/><use xlink:href="#e" transform="matrix(1,0,0,1,92,125.6) translate(0 89.80000000000003)"/><use xlink:href="#h" transform="matrix(1,0,0,1,92,125.6) translate(10.95 89.80000000000003)"/><use xlink:href="#j" transform="matrix(1,0,0,1,92,125.6) translate(94.87222222222223 89.80000000000003)"/><use xlink:href="#b" transform="matrix(1,0,0,1,92,125.6) translate(0 111.40000000000002)"/><use xlink:href="#k" transform="matrix(1,0,0,1,92,125.6) translate(10.95 111.40000000000002)"/><use xlink:href="#l" transform="matrix(1,0,0,1,92,125.6) translate(79.9 111.40000000000002)"/><use xlink:href="#b" transform="matrix(1,0,0,1,92,125.6) translate(0 133)"/><use xlink:href="#m" transform="matrix(1,0,0,1,92,125.6) translate(10.95 133)"/><use xlink:href="#n" transform="matrix(1,0,0,1,92,125.6) translate(62.849999999999994 133)"/><use xlink:href="#b" transform="matrix(1,0,0,1,92,125.6) translate(0 154.6)"/><use xlink:href="#m" transform="matrix(1,0,0,1,92,125.6) translate(10.95 154.6)"/><use xlink:href="#o" transform="matrix(1,0,0,1,92,125.6) translate(62.849999999999994 154.6)"/><use xlink:href="#b" transform="matrix(1,0,0,1,92,125.6) translate(0 176.20000000000002)"/><use xlink:href="#p" transform="matrix(1,0,0,1,92,125.6) translate(10.95 176.20000000000002)"/><use xlink:href="#q" transform="matrix(1,0,0,1,92,125.6) translate(60.900000000000006 176.20000000000002)"/><use xlink:href="#r" transform="matrix(1,0,0,1,92,334.6285714285714) translate(0 20.19999999999999)"/><use xlink:href="#s" transform="matrix(1,0,0,1,92,334.6285714285714) translate(15.5 20.19999999999999)"/><use xlink:href="#t" transform="matrix(1,0,0,1,92,334.6285714285714) translate(154.06851851851852 20.19999999999999)"/><use xlink:href="#r" transform="matrix(1,0,0,1,92,334.6285714285714) translate(0 41.79999999999999)"/><use xlink:href="#u" transform="matrix(1,0,0,1,92,334.6285714285714) translate(15.5 41.79999999999999)"/><use xlink:href="#v" transform="matrix(1,0,0,1,92,334.6285714285714) translate(0 63.39999999999999)"/><use xlink:href="#w" transform="matrix(1,0,0,1,92,334.6285714285714) translate(15 63.39999999999999)"/><use xlink:href="#x" transform="matrix(1,0,0,1,92,334.6285714285714) translate(47.9 63.39999999999999)"/><use xlink:href="#y" transform="matrix(1,0,0,1,92,334.6285714285714) translate(87.85 63.39999999999999)"/><use xlink:href="#z" transform="matrix(1,0,0,1,92,334.6285714285714) translate(122.85 63.39999999999999)"/><use xlink:href="#A" transform="matrix(1,0,0,1,92,334.6285714285714) translate(160.8 63.39999999999999)"/><use xlink:href="#r" transform="matrix(1,0,0,1,92,334.6285714285714) translate(0 85)"/><use xlink:href="#B" transform="matrix(1,0,0,1,92,334.6285714285714) translate(15.5 85)"/><path d="M560 80h360v360H560z" stroke="#000" stroke-width="2" fill="#fff"/><path d="M560 118h360M560 222h360" stroke="#000" stroke-width="2" fill="none"/><g><use xlink:href="#C" transform="matrix(1,0,0,1,568,80) translate(135.575 22.6)"/></g><g><use xlink:href="#b" transform="matrix(1,0,0,1,572,125.6) translate(0 37.3)"/><use xlink:href="#c" transform="matrix(1,0,0,1,572,125.6) translate(10.95 37.3)"/><use xlink:href="#D" transform="matrix(1,0,0,1,572,125.6) translate(34.9 37.3)"/><use xlink:href="#E" transform="matrix(1,0,0,1,572,125.6) translate(0 58.9)"/></g><g><use xlink:href="#r" transform="matrix(1,0,0,1,572,229.78165938864626) translate(0 61.89999999999999)"/><use xlink:href="#F" transform="matrix(1,0,0,1,572,229.78165938864626) translate(15.5 61.89999999999999)"/><use xlink:href="#r" transform="matrix(1,0,0,1,572,229.78165938864626) translate(0 83.5)"/><use xlink:href="#G" transform="matrix(1,0,0,1,572,229.78165938864626) translate(15.5 83.5)"/><use xlink:href="#H" transform="matrix(1,0,0,1,572,229.78165938864626) translate(176.2 83.5)"/><use xlink:href="#I" transform="matrix(1,0,0,1,572,229.78165938864626) translate(248.14999999999998 83.5)"/><use xlink:href="#J" transform="matrix(1,0,0,1,572,229.78165938864626) translate(0 105.1)"/><use xlink:href="#K" transform="matrix(1,0,0,1,572,229.78165938864626) translate(91.95 105.1)"/><use xlink:href="#L" transform="matrix(1,0,0,1,572,229.78165938864626) translate(173.05 105.1)"/><use xlink:href="#M" transform="matrix(1,0,0,1,572,229.78165938864626) translate(266.25 105.1)"/><use xlink:href="#N" transform="matrix(1,0,0,1,572,229.78165938864626) translate(0 126.70000000000002)"/><use xlink:href="#r" transform="matrix(1,0,0,1,572,229.78165938864626) translate(0 148.3)"/><use xlink:href="#O" transform="matrix(1,0,0,1,572,229.78165938864626) translate(15.5 148.3)"/><use xlink:href="#P" transform="matrix(1,0,0,1,572,229.78165938864626) translate(143.3 148.3)"/></g><path d="M560 480h360v240H560z" stroke="#000" stroke-width="2" fill="#fff"/><path d="M560 518h360M560 641h360" stroke="#000" stroke-width="2" fill="none"/><g><use xlink:href="#Q" transform="matrix(1,0,0,1,568,480) translate(105.25 22.6)"/></g><g><use xlink:href="#b" transform="matrix(1,0,0,1,572,525.6) translate(0 46.8)"/><use xlink:href="#R" transform="matrix(1,0,0,1,572,525.6) translate(10.95 46.8)"/><use xlink:href="#S" transform="matrix(1,0,0,1,572,525.6) translate(47.900000000000006 46.8)"/><use xlink:href="#T" transform="matrix(1,0,0,1,572,525.6) translate(146.45 46.8)"/><use xlink:href="#b" transform="matrix(1,0,0,1,572,525.6) translate(0 68.4)"/><use xlink:href="#c" transform="matrix(1,0,0,1,572,525.6) translate(10.95 68.4)"/><use xlink:href="#U" transform="matrix(1,0,0,1,572,525.6) translate(34.9 68.4)"/></g><path d="M140 0h240v60H140z" stroke="#000" stroke-opacity="0" stroke-width="2" fill="#fff" fill-opacity="0"/><g><use xlink:href="#V" transform="matrix(1,0,0,1,145,5) translate(25.125 17.799999999999997)"/><use xlink:href="#W" transform="matrix(1,0,0,1,145,5) translate(142.025 17.799999999999997)"/><use xlink:href="#X" transform="matrix(1,0,0,1,145,5) translate(167.975 17.799999999999997)"/><use xlink:href="#Y" transform="matrix(1,0,0,1,145,5) translate(2.174999999999983 39.4)"/><use xlink:href="#W" transform="matrix(1,0,0,1,145,5) translate(42.124999999999986 39.4)"/><use xlink:href="#Z" transform="matrix(1,0,0,1,145,5) translate(68.07499999999999 39.4)"/><use xlink:href="#aa" transform="matrix(1,0,0,1,145,5) translate(145.975 39.4)"/></g><path d="M1040 80h360v360h-360z" stroke="#000" stroke-width="2" fill="#fff"/><path d="M1040 118h360m-360 176h360" stroke="#000" stroke-width="2" fill="none"/><g><use xlink:href="#ab" transform="matrix(1,0,0,1,1048,80.00000000000003) translate(153.05 22.6)"/></g><g><use xlink:href="#b" transform="matrix(1,0,0,1,1052,125.60000000000002) translate(0 40.89999999999999)"/><use xlink:href="#c" transform="matrix(1,0,0,1,1052,125.60000000000002) translate(10.95 40.89999999999999)"/><use xlink:href="#D" transform="matrix(1,0,0,1,1052,125.60000000000002) translate(34.9 40.89999999999999)"/><use xlink:href="#b" transform="matrix(1,0,0,1,1052,125.60000000000002) translate(0 62.49999999999999)"/><use xlink:href="#m" transform="matrix(1,0,0,1,1052,125.60000000000002) translate(10.95 62.49999999999999)"/><use xlink:href="#ac" transform="matrix(1,0,0,1,1052,125.60000000000002) translate(62.849999999999994 62.49999999999999)"/><use xlink:href="#b" transform="matrix(1,0,0,1,1052,125.60000000000002) translate(0 84.1)"/><use xlink:href="#m" transform="matrix(1,0,0,1,1052,125.60000000000002) translate(10.95 84.1)"/><use xlink:href="#ad" transform="matrix(1,0,0,1,1052,125.60000000000002) translate(62.849999999999994 84.1)"/><use xlink:href="#b" transform="matrix(1,0,0,1,1052,125.60000000000002) translate(0 105.70000000000002)"/><use xlink:href="#m" transform="matrix(1,0,0,1,1052,125.60000000000002) translate(10.95 105.70000000000002)"/><use xlink:href="#ae" transform="matrix(1,0,0,1,1052,125.60000000000002) translate(62.849999999999994 105.70000000000002)"/><use xlink:href="#b" transform="matrix(1,0,0,1,1052,125.60000000000002) translate(0 127.30000000000001)"/><use xlink:href="#p" transform="matrix(1,0,0,1,1052,125.60000000000002) translate(10.95 127.30000000000001)"/><use xlink:href="#af" transform="matrix(1,0,0,1,1052,125.60000000000002) translate(60.900000000000006 127.30000000000001)"/></g><g><use xlink:href="#r" transform="matrix(1,0,0,1,1052,302.17950530035336) translate(0 36.19999999999999)"/><use xlink:href="#ag" transform="matrix(1,0,0,1,1052,302.17950530035336) translate(15.5 36.19999999999999)"/><use xlink:href="#ah" transform="matrix(1,0,0,1,1052,302.17950530035336) translate(83.30000000000001 36.19999999999999)"/><use xlink:href="#m" transform="matrix(1,0,0,1,1052,302.17950530035336) translate(146.20000000000002 36.19999999999999)"/><use xlink:href="#ai" transform="matrix(1,0,0,1,1052,302.17950530035336) translate(198.10000000000002 36.19999999999999)"/><use xlink:href="#M" transform="matrix(1,0,0,1,1052,302.17950530035336) translate(288 36.19999999999999)"/><use xlink:href="#aj" transform="matrix(1,0,0,1,1052,302.17950530035336) translate(0 57.79999999999999)"/><use xlink:href="#m" transform="matrix(1,0,0,1,1052,302.17950530035336) translate(52.85000000000001 57.79999999999999)"/><use xlink:href="#ak" transform="matrix(1,0,0,1,1052,302.17950530035336) translate(104.75 57.79999999999999)"/><use xlink:href="#al" transform="matrix(1,0,0,1,1052,302.17950530035336) translate(233.60000000000002 57.79999999999999)"/><use xlink:href="#am" transform="matrix(1,0,0,1,1052,302.17950530035336) translate(0 79.4)"/><use xlink:href="#r" transform="matrix(1,0,0,1,1052,302.17950530035336) translate(0 101)"/><use xlink:href="#an" transform="matrix(1,0,0,1,1052,302.17950530035336) translate(15.5 101)"/></g><path d="M1007.6 260h-55.2" stroke="#000" stroke-width="2" fill="none"/><path d="M1037.6 260l-14.86 14.85L1007.6 260l15.14-14.85z"/><path d="M1039 260l-16.26 16.26-16.58-16.26 16.58-16.26zm-30 0l13.73 13.44 13.44-13.44-13.44-13.44zM952.4 260l-15.14 14.85L922.4 260l14.86-14.85z"/><path d="M953.84 260l-16.58 16.26L921 260l16.26-16.26zm-30 0l13.43 13.44L951 260l-13.73-13.44z"/><path d="M1040 480h360v240h-360z" stroke="#000" stroke-width="2" fill="#fff"/><path d="M1040 518h360m-360 101h360" stroke="#000" stroke-width="2" fill="none"/><g><use xlink:href="#ao" transform="matrix(1,0,0,1,1048,480) translate(128.6 22.6)"/></g><g><use xlink:href="#ap" transform="matrix(1,0,0,1,1052,626.8000000000001) translate(0 46.6)"/></g><path d="M472.4 260H559" stroke="#000" stroke-width="2" fill="none"/><path d="M472.4 260l-15.14 14.85L442.4 260l14.86-14.85z"/><path d="M473.84 260l-16.58 16.26L441 260l16.26-16.26zm-30 0l13.43 13.44L471 260l-13.73-13.44zM560 261h-1v-2h1z"/><defs><path d="M30 0v-248h187v28H63v79h144v27H63v87h162V0H30" id="aq"/><path d="M108 0H70L1-190h34L89-25l56-165h34" id="ar"/><path d="M100-194c63 0 86 42 84 106H49c0 40 14 67 53 68 26 1 43-12 49-29l28 8c-11 28-37 45-77 45C44 4 14-33 15-96c1-61 26-98 85-98zm52 81c6-60-76-77-97-28-3 7-6 17-6 28h103" id="as"/><path d="M117-194c89-4 53 116 60 194h-32v-121c0-31-8-49-39-48C34-167 62-67 57 0H25l-1-190h30c1 10-1 24 2 32 11-22 29-35 61-36" id="at"/><path d="M59-47c-2 24 18 29 38 22v24C64 9 27 4 27-40v-127H5v-23h24l9-43h21v43h35v23H59v120" id="au"/><g id="a"><use transform="matrix(0.05,0,0,0.05,0,0)" xlink:href="#aq"/><use transform="matrix(0.05,0,0,0.05,12,0)" xlink:href="#ar"/><use transform="matrix(0.05,0,0,0.05,21,0)" xlink:href="#as"/><use transform="matrix(0.05,0,0,0.05,31,0)" xlink:href="#at"/><use transform="matrix(0.05,0,0,0.05,41,0)" xlink:href="#au"/></g><path d="M16-82v-28h88v28H16" id="av"/><use transform="matrix(0.05,0,0,0.05,0,0)" xlink:href="#av" id="b"/><path d="M24-231v-30h32v30H24zM24 0v-190h32V0H24" id="aw"/><g id="c"><use transform="matrix(0.05,0,0,0.05,0,0)" xlink:href="#aw"/><use transform="matrix(0.05,0,0,0.05,3.95,0)" xlink:href="#at"/><use transform="matrix(0.05,0,0,0.05,13.949999999999998,0)" xlink:href="#au"/></g><path d="M33 0v-248h34V0H33" id="ax"/><path d="M30-248c118-7 216 8 213 122C240-48 200 0 122 0H30v-248zM63-27c89 8 146-16 146-99s-60-101-146-95v194" id="ay"/><g id="d"><use transform="matrix(0.05,0,0,0.05,0,0)" xlink:href="#as"/><use transform="matrix(0.05,0,0,0.05,10,0)" xlink:href="#ar"/><use transform="matrix(0.05,0,0,0.05,19,0)" xlink:href="#as"/><use transform="matrix(0.05,0,0,0.05,29,0)" xlink:href="#at"/><use transform="matrix(0.05,0,0,0.05,39,0)" xlink:href="#au"/><use transform="matrix(0.05,0,0,0.05,44,0)" xlink:href="#ax"/><use transform="matrix(0.05,0,0,0.05,49,0)" xlink:href="#ay"/></g><use transform="matrix(0.05,0,0,0.05,0,0)" xlink:href="#av" id="e"/><path d="M30 0v-248h33v221h125V0H30" id="az"/><path d="M100-194c62-1 85 37 85 99 1 63-27 99-86 99S16-35 15-95c0-66 28-99 85-99zM99-20c44 1 53-31 53-75 0-43-8-75-51-75s-53 32-53 75 10 74 51 75" id="aA"/><path d="M96-169c-40 0-48 33-48 73s9 75 48 75c24 0 41-14 43-38l32 2c-6 37-31 61-74 61-59 0-76-41-82-99-10-93 101-131 147-64 4 7 5 14 7 22l-32 3c-4-21-16-35-41-35" id="aB"/><path d="M141-36C126-15 110 5 73 4 37 3 15-17 15-53c-1-64 63-63 125-63 3-35-9-54-41-54-24 1-41 7-42 31l-33-3c5-37 33-52 76-52 45 0 72 20 72 64v82c-1 20 7 32 28 27v20c-31 9-61-2-59-35zM48-53c0 20 12 33 32 33 41-3 63-29 60-74-43 2-92-5-92 41" id="aC"/><path d="M24 0v-261h32V0H24" id="aD"/><g id="f"><use transform="matrix(0.048148148148148155,0,0,0.048148148148148155,0,0)" xlink:href="#az"/><use transform="matrix(0.048148148148148155,0,0,0.048148148148148155,9.629629629629632,0)" xlink:href="#aA"/><use transform="matrix(0.048148148148148155,0,0,0.048148148148148155,19.259259259259263,0)" xlink:href="#aB"/><use transform="matrix(0.048148148148148155,0,0,0.048148148148148155,27.92592592592593,0)" xlink:href="#aC"/><use transform="matrix(0.048148148148148155,0,0,0.048148148148148155,37.555555555555564,0)" xlink:href="#aD"/><use transform="matrix(0.048148148148148155,0,0,0.048148148148148155,41.35925925925927,0)" xlink:href="#ay"/><use transform="matrix(0.048148148148148155,0,0,0.048148148148148155,53.829629629629636,0)" xlink:href="#aC"/><use transform="matrix(0.048148148148148155,0,0,0.048148148148148155,63.45925925925927,0)" xlink:href="#au"/><use transform="matrix(0.048148148148148155,0,0,0.048148148148148155,68.27407407407408,0)" xlink:href="#as"/></g><g id="g"><use transform="matrix(0.05,0,0,0.05,0,0)" xlink:href="#as"/><use transform="matrix(0.05,0,0,0.05,10,0)" xlink:href="#ar"/><use transform="matrix(0.05,0,0,0.05,19,0)" xlink:href="#as"/><use transform="matrix(0.05,0,0,0.05,29,0)" xlink:href="#at"/><use transform="matrix(0.05,0,0,0.05,39,0)" xlink:href="#au"/><use transform="matrix(0.05,0,0,0.05,44,0)" xlink:href="#ay"/><use transform="matrix(0.05,0,0,0.05,56.95,0)" xlink:href="#aC"/><use transform="matrix(0.05,0,0,0.05,66.95,0)" xlink:href="#au"/><use transform="matrix(0.05,0,0,0.05,71.95,0)" xlink:href="#as"/></g><path d="M127-220V0H93v-220H8v-28h204v28h-85" id="aE"/><path d="M210-169c-67 3-38 105-44 169h-31v-121c0-29-5-50-35-48C34-165 62-65 56 0H25l-1-190h30c1 10-1 24 2 32 10-44 99-50 107 0 11-21 27-35 58-36 85-2 47 119 55 194h-31v-121c0-29-5-49-35-48" id="aF"/><g id="h"><use transform="matrix(0.048148148148148155,0,0,0.048148148148148155,0,0)" xlink:href="#az"/><use transform="matrix(0.048148148148148155,0,0,0.048148148148148155,9.629629629629632,0)" xlink:href="#aA"/><use transform="matrix(0.048148148148148155,0,0,0.048148148148148155,19.259259259259263,0)" xlink:href="#aB"/><use transform="matrix(0.048148148148148155,0,0,0.048148148148148155,27.92592592592593,0)" xlink:href="#aC"/><use transform="matrix(0.048148148148148155,0,0,0.048148148148148155,37.555555555555564,0)" xlink:href="#aD"/><use transform="matrix(0.048148148148148155,0,0,0.048148148148148155,41.35925925925927,0)" xlink:href="#aE"/><use transform="matrix(0.048148148148148155,0,0,0.048148148148148155,51.277777777777786,0)" xlink:href="#aw"/><use transform="matrix(0.048148148148148155,0,0,0.048148148148148155,55.08148148148149,0)" xlink:href="#aF"/><use transform="matrix(0.048148148148148155,0,0,0.048148148148148155,69.47777777777779,0)" xlink:href="#as"/></g><path d="M135-143c-3-34-86-38-87 0 15 53 115 12 119 90S17 21 10-45l28-5c4 36 97 45 98 0-10-56-113-15-118-90-4-57 82-63 122-42 12 7 21 19 24 35" id="aG"/><path d="M114-163C36-179 61-72 57 0H25l-1-190h30c1 12-1 29 2 39 6-27 23-49 58-41v29" id="aH"/><g id="i"><use transform="matrix(0.05,0,0,0.05,0,0)" xlink:href="#aG"/><use transform="matrix(0.05,0,0,0.05,9,0)" xlink:href="#au"/><use transform="matrix(0.05,0,0,0.05,14,0)" xlink:href="#aC"/><use transform="matrix(0.05,0,0,0.05,24,0)" xlink:href="#aH"/><use transform="matrix(0.05,0,0,0.05,29.950000000000003,0)" xlink:href="#au"/><use transform="matrix(0.05,0,0,0.05,34.95,0)" xlink:href="#aE"/><use transform="matrix(0.05,0,0,0.05,45.25000000000001,0)" xlink:href="#aw"/><use transform="matrix(0.05,0,0,0.05,49.20000000000001,0)" xlink:href="#aF"/><use transform="matrix(0.05,0,0,0.05,64.15,0)" xlink:href="#as"/></g><path d="M85-194c31 0 48 13 60 33l-1-100h32l1 261h-30c-2-10 0-23-3-31C134-8 116 4 85 4 32 4 16-35 15-94c0-66 23-100 70-100zm9 24c-40 0-46 34-46 75 0 40 6 74 45 74 42 0 51-32 51-76 0-42-9-74-50-73" id="aI"/><g id="j"><use transform="matrix(0.05,0,0,0.05,0,0)" xlink:href="#as"/><use transform="matrix(0.05,0,0,0.05,10,0)" xlink:href="#at"/><use transform="matrix(0.05,0,0,0.05,20,0)" xlink:href="#aI"/><use transform="matrix(0.05,0,0,0.05,30,0)" xlink:href="#aE"/><use transform="matrix(0.05,0,0,0.05,40.300000000000004,0)" xlink:href="#aw"/><use transform="matrix(0.05,0,0,0.05,44.25000000000001,0)" xlink:href="#aF"/><use transform="matrix(0.05,0,0,0.05,59.20000000000002,0)" xlink:href="#as"/></g><path d="M115-194c53 0 69 39 70 98 0 66-23 100-70 100C84 3 66-7 56-30L54 0H23l1-261h32v101c10-23 28-34 59-34zm-8 174c40 0 45-34 45-75 0-40-5-75-45-74-42 0-51 32-51 76 0 43 10 73 51 73" id="aJ"/><g id="k"><use transform="matrix(0.05,0,0,0.05,0,0)" xlink:href="#aJ"/><use transform="matrix(0.05,0,0,0.05,10,0)" xlink:href="#aA"/><use transform="matrix(0.05,0,0,0.05,20,0)" xlink:href="#aA"/><use transform="matrix(0.05,0,0,0.05,30,0)" xlink:href="#aD"/><use transform="matrix(0.05,0,0,0.05,33.95,0)" xlink:href="#as"/><use transform="matrix(0.05,0,0,0.05,43.95,0)" xlink:href="#aC"/><use transform="matrix(0.05,0,0,0.05,53.95,0)" xlink:href="#at"/></g><path d="M101-234c-31-9-42 10-38 44h38v23H63V0H32v-167H5v-23h27c-7-52 17-82 69-68v24" id="aK"/><path d="M84 4C-5 8 30-112 23-190h32v120c0 31 7 50 39 49 72-2 45-101 50-169h31l1 190h-30c-1-10 1-25-2-33-11 22-28 36-60 37" id="aL"/><path d="M179-190L93 31C79 59 56 82 12 73V49c39 6 53-20 64-50L1-190h34L92-34l54-156h33" id="aM"/><g id="l"><use transform="matrix(0.05,0,0,0.05,0,0)" xlink:href="#aK"/><use transform="matrix(0.05,0,0,0.05,5,0)" xlink:href="#aL"/><use transform="matrix(0.05,0,0,0.05,15,0)" xlink:href="#aD"/><use transform="matrix(0.05,0,0,0.05,18.95,0)" xlink:href="#aD"/><use transform="matrix(0.05,0,0,0.05,22.9,0)" xlink:href="#ay"/><use transform="matrix(0.05,0,0,0.05,35.85,0)" xlink:href="#aC"/><use transform="matrix(0.05,0,0,0.05,45.85,0)" xlink:href="#aM"/><use transform="matrix(0.05,0,0,0.05,54.85,0)" xlink:href="#aq"/><use transform="matrix(0.05,0,0,0.05,66.85,0)" xlink:href="#ar"/><use transform="matrix(0.05,0,0,0.05,75.85,0)" xlink:href="#as"/><use transform="matrix(0.05,0,0,0.05,85.85,0)" xlink:href="#at"/><use transform="matrix(0.05,0,0,0.05,95.85,0)" xlink:href="#au"/></g><path d="M185-189c-5-48-123-54-124 2 14 75 158 14 163 119 3 78-121 87-175 55-17-10-28-26-33-46l33-7c5 56 141 63 141-1 0-78-155-14-162-118-5-82 145-84 179-34 5 7 8 16 11 25" id="aN"/><path d="M177-190C167-65 218 103 67 71c-23-6-38-20-44-43l32-5c15 47 100 32 89-28v-30C133-14 115 1 83 1 29 1 15-40 15-95c0-56 16-97 71-98 29-1 48 16 59 35 1-10 0-23 2-32h30zM94-22c36 0 50-32 50-73 0-42-14-75-50-75-39 0-46 34-46 75s6 73 46 73" id="aO"/><g id="m"><use transform="matrix(0.05,0,0,0.05,0,0)" xlink:href="#aN"/><use transform="matrix(0.05,0,0,0.05,12,0)" xlink:href="#au"/><use transform="matrix(0.05,0,0,0.05,17,0)" xlink:href="#aH"/><use transform="matrix(0.05,0,0,0.05,22.95,0)" xlink:href="#aw"/><use transform="matrix(0.05,0,0,0.05,26.899999999999995,0)" xlink:href="#at"/><use transform="matrix(0.05,0,0,0.05,36.9,0)" xlink:href="#aO"/></g><g id="n"><use transform="matrix(0.05,0,0,0.05,0,0)" xlink:href="#au"/><use transform="matrix(0.05,0,0,0.05,5,0)" xlink:href="#aw"/><use transform="matrix(0.05,0,0,0.05,8.95,0)" xlink:href="#au"/><use transform="matrix(0.05,0,0,0.05,13.949999999999998,0)" xlink:href="#aD"/><use transform="matrix(0.05,0,0,0.05,17.9,0)" xlink:href="#as"/></g><path d="M115-194c55 1 70 41 70 98S169 2 115 4C84 4 66-9 55-30l1 105H24l-1-265h31l2 30c10-21 28-34 59-34zm-8 174c40 0 45-34 45-75s-6-73-45-74c-42 0-51 32-51 76 0 43 10 73 51 73" id="aP"/><g id="o"><use transform="matrix(0.05,0,0,0.05,0,0)" xlink:href="#aI"/><use transform="matrix(0.05,0,0,0.05,10,0)" xlink:href="#as"/><use transform="matrix(0.05,0,0,0.05,20,0)" xlink:href="#aG"/><use transform="matrix(0.05,0,0,0.05,29,0)" xlink:href="#aB"/><use transform="matrix(0.05,0,0,0.05,38,0)" xlink:href="#aH"/><use transform="matrix(0.05,0,0,0.05,43.95,0)" xlink:href="#aw"/><use transform="matrix(0.05,0,0,0.05,47.900000000000006,0)" xlink:href="#aP"/><use transform="matrix(0.05,0,0,0.05,57.900000000000006,0)" xlink:href="#au"/><use transform="matrix(0.05,0,0,0.05,62.900000000000006,0)" xlink:href="#aw"/><use transform="matrix(0.05,0,0,0.05,66.85000000000001,0)" xlink:href="#aA"/><use transform="matrix(0.05,0,0,0.05,76.85000000000001,0)" xlink:href="#at"/></g><g id="p"><use transform="matrix(0.05,0,0,0.05,0,0)" xlink:href="#as"/><use transform="matrix(0.05,0,0,0.05,10,0)" xlink:href="#at"/><use transform="matrix(0.05,0,0,0.05,20,0)" xlink:href="#aL"/><use transform="matrix(0.05,0,0,0.05,30,0)" xlink:href="#aF"/></g><g id="q"><use transform="matrix(0.05,0,0,0.05,0,0)" xlink:href="#aP"/><use transform="matrix(0.05,0,0,0.05,10,0)" xlink:href="#aH"/><use transform="matrix(0.05,0,0,0.05,15.949999999999998,0)" xlink:href="#aw"/><use transform="matrix(0.05,0,0,0.05,19.9,0)" xlink:href="#aA"/><use transform="matrix(0.05,0,0,0.05,29.899999999999995,0)" xlink:href="#aH"/><use transform="matrix(0.05,0,0,0.05,35.85,0)" xlink:href="#aw"/><use transform="matrix(0.05,0,0,0.05,39.800000000000004,0)" xlink:href="#au"/><use transform="matrix(0.05,0,0,0.05,44.800000000000004,0)" xlink:href="#aM"/></g><path d="M118-107v75H92v-75H18v-26h74v-75h26v75h74v26h-74" id="aQ"/><use transform="matrix(0.05,0,0,0.05,0,0)" xlink:href="#aQ" id="r"/><path d="M87 75C49 33 22-17 22-94c0-76 28-126 65-167h31c-38 41-64 92-64 168S80 34 118 75H87" id="aR"/><path d="M240 0l2-218c-23 76-54 145-80 218h-23L58-218 59 0H30v-248h44l77 211c21-75 51-140 76-211h43V0h-30" id="aS"/><path d="M18-100v-36l175-74v27L42-118l151 64v27" id="aT"/><path d="M194 0L95-120 63-95V0H30v-248h33v124l119-124h40L117-140 236 0h-42" id="aU"/><path d="M68-38c1 34 0 65-14 84H32c9-13 17-26 17-46H33v-38h35" id="aV"/><path d="M137 0h-34L2-248h35l83 218 83-218h36" id="aW"/><path d="M18-27v-27l151-64-151-65v-27l175 74v36" id="aX"/><g id="s"><use transform="matrix(0.05,0,0,0.05,0,0)" xlink:href="#aq"/><use transform="matrix(0.05,0,0,0.05,12,0)" xlink:href="#ar"/><use transform="matrix(0.05,0,0,0.05,21,0)" xlink:href="#as"/><use transform="matrix(0.05,0,0,0.05,31,0)" xlink:href="#at"/><use transform="matrix(0.05,0,0,0.05,41,0)" xlink:href="#au"/><use transform="matrix(0.05,0,0,0.05,46,0)" xlink:href="#aR"/><use transform="matrix(0.048148148148148155,0,0,0.048148148148148155,51.95,0)" xlink:href="#aS"/><use transform="matrix(0.048148148148148155,0,0,0.048148148148148155,66.3462962962963,0)" xlink:href="#aC"/><use transform="matrix(0.048148148148148155,0,0,0.048148148148148155,75.97592592592594,0)" xlink:href="#aP"/><use transform="matrix(0.048148148148148155,0,0,0.048148148148148155,85.60555555555557,0)" xlink:href="#aT"/><use transform="matrix(0.048148148148148155,0,0,0.048148148148148155,95.71666666666668,0)" xlink:href="#aU"/><use transform="matrix(0.048148148148148155,0,0,0.048148148148148155,107.27222222222224,0)" xlink:href="#aV"/><use transform="matrix(0.048148148148148155,0,0,0.048148148148148155,112.08703703703706,0)" xlink:href="#aW"/><use transform="matrix(0.048148148148148155,0,0,0.048148148148148155,123.64259259259262,0)" xlink:href="#aX"/></g><path d="M30-248c87 1 191-15 191 75 0 78-77 80-158 76V0H30v-248zm33 125c57 0 124 11 124-50 0-59-68-47-124-48v98" id="aY"/><path d="M33-261c38 41 65 92 65 168S71 34 33 75H2C39 34 66-17 66-93S39-220 2-261h31" id="aZ"/><g id="t"><use transform="matrix(0.048148148148148155,0,0,0.048148148148148155,0,0)" xlink:href="#as"/><use transform="matrix(0.048148148148148155,0,0,0.048148148148148155,9.629629629629632,0)" xlink:href="#ar"/><use transform="matrix(0.048148148148148155,0,0,0.048148148148148155,18.296296296296298,0)" xlink:href="#as"/><use transform="matrix(0.048148148148148155,0,0,0.048148148148148155,27.92592592592593,0)" xlink:href="#at"/><use transform="matrix(0.048148148148148155,0,0,0.048148148148148155,37.555555555555564,0)" xlink:href="#au"/><use transform="matrix(0.048148148148148155,0,0,0.048148148148148155,42.37037037037038,0)" xlink:href="#aY"/><use transform="matrix(0.048148148148148155,0,0,0.048148148148148155,53.92592592592593,0)" xlink:href="#aC"/><use transform="matrix(0.048148148148148155,0,0,0.048148148148148155,63.55555555555558,0)" xlink:href="#aH"/><use transform="matrix(0.048148148148148155,0,0,0.048148148148148155,69.2851851851852,0)" xlink:href="#aC"/><use transform="matrix(0.048148148148148155,0,0,0.048148148148148155,78.91481481481483,0)" xlink:href="#aF"/><use transform="matrix(0.048148148148148155,0,0,0.048148148148148155,93.31111111111113,0)" xlink:href="#as"/><use transform="matrix(0.048148148148148155,0,0,0.048148148148148155,102.94074074074075,0)" xlink:href="#au"/><use transform="matrix(0.048148148148148155,0,0,0.048148148148148155,107.75555555555557,0)" xlink:href="#as"/><use transform="matrix(0.048148148148148155,0,0,0.048148148148148155,117.38518518518521,0)" xlink:href="#aH"/><use transform="matrix(0.048148148148148155,0,0,0.048148148148148155,123.11481481481484,0)" xlink:href="#aG"/><use transform="matrix(0.05,0,0,0.05,131.7814814814815,0)" xlink:href="#aZ"/></g><path d="M143 4C61 4 22-44 18-125c-5-107 100-154 193-111 17 8 29 25 37 43l-32 9c-13-25-37-40-76-40-61 0-88 39-88 99 0 61 29 100 91 101 35 0 62-11 79-27v-45h-74v-28h105v86C228-13 192 4 143 4" id="ba"/><path d="M233-177c-1 41-23 64-60 70L243 0h-38l-65-103H63V0H30v-248c88 3 205-21 203 71zM63-129c60-2 137 13 137-47 0-61-80-42-137-45v92" id="bb"/><g id="u"><use transform="matrix(0.05,0,0,0.05,0,0)" xlink:href="#ba"/><use transform="matrix(0.05,0,0,0.05,14,0)" xlink:href="#as"/><use transform="matrix(0.05,0,0,0.05,24,0)" xlink:href="#au"/><use transform="matrix(0.05,0,0,0.05,29,0)" xlink:href="#bb"/><use transform="matrix(0.05,0,0,0.05,41.95,0)" xlink:href="#as"/><use transform="matrix(0.05,0,0,0.05,51.95,0)" xlink:href="#aF"/><use transform="matrix(0.05,0,0,0.05,66.9,0)" xlink:href="#aC"/><use transform="matrix(0.05,0,0,0.05,76.9,0)" xlink:href="#aw"/><use transform="matrix(0.05,0,0,0.05,80.85000000000001,0)" xlink:href="#at"/><use transform="matrix(0.05,0,0,0.05,90.85000000000001,0)" xlink:href="#aw"/><use transform="matrix(0.05,0,0,0.05,94.80000000000001,0)" xlink:href="#at"/><use transform="matrix(0.05,0,0,0.05,104.80000000000001,0)" xlink:href="#aO"/><use transform="matrix(0.05,0,0,0.05,114.80000000000001,0)" xlink:href="#aE"/><use transform="matrix(0.05,0,0,0.05,125.10000000000001,0)" xlink:href="#aw"/><use transform="matrix(0.05,0,0,0.05,129.05,0)" xlink:href="#aF"/><use transform="matrix(0.05,0,0,0.05,144,0)" xlink:href="#as"/><use transform="matrix(0.05,0,0,0.05,154,0)" xlink:href="#aR"/><use transform="matrix(0.05,0,0,0.05,159.95,0)" xlink:href="#aZ"/></g><path d="M0 4l72-265h28L28 4H0" id="bc"/><g id="v"><use transform="matrix(0.05,0,0,0.05,0,0)" xlink:href="#bc"/><use transform="matrix(0.05,0,0,0.05,5,0)" xlink:href="#bc"/></g><g id="w"><use transform="matrix(0.05,0,0,0.05,0,0)" xlink:href="#aC"/><use transform="matrix(0.05,0,0,0.05,10,0)" xlink:href="#aD"/><use transform="matrix(0.05,0,0,0.05,13.949999999999998,0)" xlink:href="#aD"/><use transform="matrix(0.05,0,0,0.05,17.9,0)" xlink:href="#as"/></g><g id="x"><use transform="matrix(0.05,0,0,0.05,0,0)" xlink:href="#ba"/><use transform="matrix(0.05,0,0,0.05,14,0)" xlink:href="#as"/><use transform="matrix(0.05,0,0,0.05,24,0)" xlink:href="#au"/><use transform="matrix(0.05,0,0,0.05,29,0)" xlink:href="#av"/></g><g id="y"><use transform="matrix(0.05,0,0,0.05,0,0)" xlink:href="#aL"/><use transform="matrix(0.05,0,0,0.05,10,0)" xlink:href="#at"/><use transform="matrix(0.05,0,0,0.05,20,0)" xlink:href="#aI"/></g><g id="z"><use transform="matrix(0.05,0,0,0.05,0,0)" xlink:href="#aN"/><use transform="matrix(0.05,0,0,0.05,12,0)" xlink:href="#as"/><use transform="matrix(0.05,0,0,0.05,22,0)" xlink:href="#au"/><use transform="matrix(0.05,0,0,0.05,27,0)" xlink:href="#av"/></g><path d="M106-169C34-169 62-67 57 0H25v-261h32l-1 103c12-21 28-36 61-36 89 0 53 116 60 194h-32v-121c2-32-8-49-39-48" id="bd"/><g id="A"><use transform="matrix(0.05,0,0,0.05,0,0)" xlink:href="#aS"/><use transform="matrix(0.05,0,0,0.05,14.950000000000001,0)" xlink:href="#as"/><use transform="matrix(0.05,0,0,0.05,24.950000000000003,0)" xlink:href="#au"/><use transform="matrix(0.05,0,0,0.05,29.950000000000003,0)" xlink:href="#bd"/><use transform="matrix(0.05,0,0,0.05,39.95,0)" xlink:href="#aA"/><use transform="matrix(0.05,0,0,0.05,49.95,0)" xlink:href="#aI"/><use transform="matrix(0.05,0,0,0.05,59.95,0)" xlink:href="#as"/><use transform="matrix(0.05,0,0,0.05,69.95,0)" xlink:href="#at"/></g><path d="M16-127c37-31 93-2 135 6 18-1 32-8 43-16v26c-50 42-130-35-178 9v-25" id="be"/><g id="B"><use transform="matrix(0.05,0,0,0.05,0,0)" xlink:href="#be"/><use transform="matrix(0.05,0,0,0.05,10.5,0)" xlink:href="#aq"/><use transform="matrix(0.05,0,0,0.05,22.5,0)" xlink:href="#ar"/><use transform="matrix(0.05,0,0,0.05,31.5,0)" xlink:href="#as"/><use transform="matrix(0.05,0,0,0.05,41.5,0)" xlink:href="#at"/><use transform="matrix(0.05,0,0,0.05,51.5,0)" xlink:href="#au"/><use transform="matrix(0.05,0,0,0.05,56.5,0)" xlink:href="#aR"/><use transform="matrix(0.05,0,0,0.05,62.45,0)" xlink:href="#aZ"/></g><path d="M212-179c-10-28-35-45-73-45-59 0-87 40-87 99 0 60 29 101 89 101 43 0 62-24 78-52l27 14C228-24 195 4 139 4 59 4 22-46 18-125c-6-104 99-153 187-111 19 9 31 26 39 46" id="bf"/><g id="C"><use transform="matrix(0.05,0,0,0.05,0,0)" xlink:href="#bf"/><use transform="matrix(0.05,0,0,0.05,12.950000000000001,0)" xlink:href="#aC"/><use transform="matrix(0.05,0,0,0.05,22.950000000000003,0)" xlink:href="#aD"/><use transform="matrix(0.05,0,0,0.05,26.900000000000002,0)" xlink:href="#as"/><use transform="matrix(0.05,0,0,0.05,36.900000000000006,0)" xlink:href="#at"/><use transform="matrix(0.05,0,0,0.05,46.900000000000006,0)" xlink:href="#aI"/><use transform="matrix(0.05,0,0,0.05,56.900000000000006,0)" xlink:href="#aC"/><use transform="matrix(0.05,0,0,0.05,66.9,0)" xlink:href="#aH"/></g><g id="D"><use transform="matrix(0.05,0,0,0.05,0,0)" xlink:href="#aL"/><use transform="matrix(0.05,0,0,0.05,10,0)" xlink:href="#aG"/><use transform="matrix(0.05,0,0,0.05,19,0)" xlink:href="#as"/><use transform="matrix(0.05,0,0,0.05,29,0)" xlink:href="#aH"/><use transform="matrix(0.05,0,0,0.05,34.95,0)" xlink:href="#ax"/><use transform="matrix(0.05,0,0,0.05,39.95,0)" xlink:href="#ay"/></g><g id="F"><use transform="matrix(0.05,0,0,0.05,0,0)" xlink:href="#bf"/><use transform="matrix(0.05,0,0,0.05,12.950000000000001,0)" xlink:href="#aC"/><use transform="matrix(0.05,0,0,0.05,22.950000000000003,0)" xlink:href="#aD"/><use transform="matrix(0.05,0,0,0.05,26.900000000000002,0)" xlink:href="#as"/><use transform="matrix(0.05,0,0,0.05,36.900000000000006,0)" xlink:href="#at"/><use transform="matrix(0.05,0,0,0.05,46.900000000000006,0)" xlink:href="#aI"/><use transform="matrix(0.05,0,0,0.05,56.900000000000006,0)" xlink:href="#aC"/><use transform="matrix(0.05,0,0,0.05,66.9,0)" xlink:href="#aH"/><use transform="matrix(0.05,0,0,0.05,72.85000000000001,0)" xlink:href="#aR"/><use transform="matrix(0.05,0,0,0.05,78.80000000000001,0)" xlink:href="#aZ"/></g><path d="M190 0L58-211 59 0H30v-248h39L202-35l-2-213h31V0h-41" id="bg"/><g id="G"><use transform="matrix(0.05,0,0,0.05,0,0)" xlink:href="#aN"/><use transform="matrix(0.05,0,0,0.05,12,0)" xlink:href="#as"/><use transform="matrix(0.05,0,0,0.05,22,0)" xlink:href="#at"/><use transform="matrix(0.05,0,0,0.05,32,0)" xlink:href="#aI"/><use transform="matrix(0.05,0,0,0.05,42,0)" xlink:href="#bg"/><use transform="matrix(0.05,0,0,0.05,54.95,0)" xlink:href="#aA"/><use transform="matrix(0.05,0,0,0.05,64.95,0)" xlink:href="#au"/><use transform="matrix(0.05,0,0,0.05,69.95,0)" xlink:href="#aw"/><use transform="matrix(0.05,0,0,0.05,73.9,0)" xlink:href="#aK"/><use transform="matrix(0.05,0,0,0.05,78.9,0)" xlink:href="#aw"/><use transform="matrix(0.05,0,0,0.05,82.85000000000001,0)" xlink:href="#aB"/><use transform="matrix(0.05,0,0,0.05,91.85000000000001,0)" xlink:href="#aC"/><use transform="matrix(0.05,0,0,0.05,101.85000000000001,0)" xlink:href="#au"/><use transform="matrix(0.05,0,0,0.05,106.85000000000001,0)" xlink:href="#aw"/><use transform="matrix(0.05,0,0,0.05,110.80000000000001,0)" xlink:href="#aA"/><use transform="matrix(0.05,0,0,0.05,120.80000000000001,0)" xlink:href="#at"/><use transform="matrix(0.05,0,0,0.05,130.8,0)" xlink:href="#aR"/><use transform="matrix(0.05,0,0,0.05,136.75,0)" xlink:href="#aw"/><use transform="matrix(0.05,0,0,0.05,140.7,0)" xlink:href="#at"/><use transform="matrix(0.05,0,0,0.05,150.7,0)" xlink:href="#au"/></g><g id="H"><use transform="matrix(0.05,0,0,0.05,0,0)" xlink:href="#as"/><use transform="matrix(0.05,0,0,0.05,10,0)" xlink:href="#ar"/><use transform="matrix(0.05,0,0,0.05,19,0)" xlink:href="#as"/><use transform="matrix(0.05,0,0,0.05,29,0)" xlink:href="#at"/><use transform="matrix(0.05,0,0,0.05,39,0)" xlink:href="#au"/><use transform="matrix(0.05,0,0,0.05,44,0)" xlink:href="#ax"/><use transform="matrix(0.05,0,0,0.05,49,0)" xlink:href="#ay"/><use transform="matrix(0.05,0,0,0.05,61.95,0)" xlink:href="#aV"/></g><g id="I"><use transform="matrix(0.05,0,0,0.05,0,0)" xlink:href="#az"/><use transform="matrix(0.05,0,0,0.05,10,0)" xlink:href="#aA"/><use transform="matrix(0.05,0,0,0.05,20,0)" xlink:href="#aB"/><use transform="matrix(0.05,0,0,0.05,29,0)" xlink:href="#aC"/><use transform="matrix(0.05,0,0,0.05,39,0)" xlink:href="#aD"/><use transform="matrix(0.05,0,0,0.05,42.95,0)" xlink:href="#ay"/><use transform="matrix(0.05,0,0,0.05,55.900000000000006,0)" xlink:href="#aC"/><use transform="matrix(0.05,0,0,0.05,65.9,0)" xlink:href="#au"/><use transform="matrix(0.05,0,0,0.05,70.9,0)" xlink:href="#as"/></g><g id="J"><use transform="matrix(0.05,0,0,0.05,0,0)" xlink:href="#as"/><use transform="matrix(0.05,0,0,0.05,10,0)" xlink:href="#ar"/><use transform="matrix(0.05,0,0,0.05,19,0)" xlink:href="#as"/><use transform="matrix(0.05,0,0,0.05,29,0)" xlink:href="#at"/><use transform="matrix(0.05,0,0,0.05,39,0)" xlink:href="#au"/><use transform="matrix(0.05,0,0,0.05,44,0)" xlink:href="#ay"/><use transform="matrix(0.05,0,0,0.05,56.95,0)" xlink:href="#aC"/><use transform="matrix(0.05,0,0,0.05,66.95,0)" xlink:href="#au"/><use transform="matrix(0.05,0,0,0.05,71.95,0)" xlink:href="#as"/><use transform="matrix(0.05,0,0,0.05,81.95,0)" xlink:href="#aV"/></g><g id="K"><use transform="matrix(0.05,0,0,0.05,0,0)" xlink:href="#aD"/><use transform="matrix(0.05,0,0,0.05,3.95,0)" xlink:href="#aA"/><use transform="matrix(0.05,0,0,0.05,13.949999999999998,0)" xlink:href="#aB"/><use transform="matrix(0.05,0,0,0.05,22.95,0)" xlink:href="#aC"/><use transform="matrix(0.05,0,0,0.05,32.95,0)" xlink:href="#aD"/><use transform="matrix(0.05,0,0,0.05,36.900000000000006,0)" xlink:href="#aE"/><use transform="matrix(0.05,0,0,0.05,47.20000000000001,0)" xlink:href="#aw"/><use transform="matrix(0.05,0,0,0.05,51.15000000000001,0)" xlink:href="#aF"/><use transform="matrix(0.05,0,0,0.05,66.10000000000001,0)" xlink:href="#as"/></g><g id="L"><use transform="matrix(0.05,0,0,0.05,0,0)" xlink:href="#as"/><use transform="matrix(0.05,0,0,0.05,10,0)" xlink:href="#ar"/><use transform="matrix(0.05,0,0,0.05,19,0)" xlink:href="#as"/><use transform="matrix(0.05,0,0,0.05,29,0)" xlink:href="#at"/><use transform="matrix(0.05,0,0,0.05,39,0)" xlink:href="#au"/><use transform="matrix(0.05,0,0,0.05,44,0)" xlink:href="#aE"/><use transform="matrix(0.05,0,0,0.05,54.300000000000004,0)" xlink:href="#aw"/><use transform="matrix(0.05,0,0,0.05,58.25,0)" xlink:href="#aF"/><use transform="matrix(0.05,0,0,0.05,73.2,0)" xlink:href="#as"/><use transform="matrix(0.05,0,0,0.05,83.2,0)" xlink:href="#aV"/></g><g id="M"><use transform="matrix(0.05,0,0,0.05,0,0)" xlink:href="#aN"/><use transform="matrix(0.05,0,0,0.05,12,0)" xlink:href="#au"/><use transform="matrix(0.05,0,0,0.05,17,0)" xlink:href="#aH"/><use transform="matrix(0.05,0,0,0.05,22.95,0)" xlink:href="#aw"/><use transform="matrix(0.05,0,0,0.05,26.899999999999995,0)" xlink:href="#at"/><use transform="matrix(0.05,0,0,0.05,36.9,0)" xlink:href="#aO"/></g><g id="N"><use transform="matrix(0.05,0,0,0.05,0,0)" xlink:href="#at"/><use transform="matrix(0.05,0,0,0.05,10,0)" xlink:href="#aA"/><use transform="matrix(0.05,0,0,0.05,20,0)" xlink:href="#au"/><use transform="matrix(0.05,0,0,0.05,25,0)" xlink:href="#aw"/><use transform="matrix(0.05,0,0,0.05,28.950000000000003,0)" xlink:href="#aK"/><use transform="matrix(0.05,0,0,0.05,33.95,0)" xlink:href="#aw"/><use transform="matrix(0.05,0,0,0.05,37.900000000000006,0)" xlink:href="#aB"/><use transform="matrix(0.05,0,0,0.05,46.900000000000006,0)" xlink:href="#aC"/><use transform="matrix(0.05,0,0,0.05,56.900000000000006,0)" xlink:href="#au"/><use transform="matrix(0.05,0,0,0.05,61.900000000000006,0)" xlink:href="#aw"/><use transform="matrix(0.05,0,0,0.05,65.85000000000001,0)" xlink:href="#aA"/><use transform="matrix(0.05,0,0,0.05,75.85000000000001,0)" xlink:href="#at"/><use transform="matrix(0.05,0,0,0.05,85.85000000000001,0)" xlink:href="#aZ"/></g><g id="O"><use transform="matrix(0.05,0,0,0.05,0,0)" xlink:href="#ay"/><use transform="matrix(0.05,0,0,0.05,12.950000000000001,0)" xlink:href="#as"/><use transform="matrix(0.05,0,0,0.05,22.950000000000003,0)" xlink:href="#aD"/><use transform="matrix(0.05,0,0,0.05,26.900000000000002,0)" xlink:href="#as"/><use transform="matrix(0.05,0,0,0.05,36.900000000000006,0)" xlink:href="#au"/><use transform="matrix(0.05,0,0,0.05,41.900000000000006,0)" xlink:href="#as"/><use transform="matrix(0.05,0,0,0.05,51.900000000000006,0)" xlink:href="#aq"/><use transform="matrix(0.05,0,0,0.05,63.900000000000006,0)" xlink:href="#ar"/><use transform="matrix(0.05,0,0,0.05,72.9,0)" xlink:href="#as"/><use transform="matrix(0.05,0,0,0.05,82.9,0)" xlink:href="#at"/><use transform="matrix(0.05,0,0,0.05,92.9,0)" xlink:href="#au"/><use transform="matrix(0.05,0,0,0.05,97.9,0)" xlink:href="#aR"/><use transform="matrix(0.05,0,0,0.05,103.85000000000001,0)" xlink:href="#aw"/><use transform="matrix(0.05,0,0,0.05,107.80000000000001,0)" xlink:href="#at"/><use transform="matrix(0.05,0,0,0.05,117.80000000000001,0)" xlink:href="#au"/></g><g id="P"><use transform="matrix(0.05,0,0,0.05,0,0)" xlink:href="#as"/><use transform="matrix(0.05,0,0,0.05,10,0)" xlink:href="#ar"/><use transform="matrix(0.05,0,0,0.05,19,0)" xlink:href="#as"/><use transform="matrix(0.05,0,0,0.05,29,0)" xlink:href="#at"/><use transform="matrix(0.05,0,0,0.05,39,0)" xlink:href="#au"/><use transform="matrix(0.05,0,0,0.05,44,0)" xlink:href="#ax"/><use transform="matrix(0.05,0,0,0.05,49,0)" xlink:href="#ay"/><use transform="matrix(0.05,0,0,0.05,61.95,0)" xlink:href="#aZ"/></g><path d="M266 0h-40l-56-210L115 0H75L2-248h35L96-30l15-64 43-154h32l59 218 59-218h35" id="bh"/><path d="M143 0L79-87 56-68V0H24v-261h32v163l83-92h37l-77 82L181 0h-38" id="bi"/><g id="Q"><use transform="matrix(0.05,0,0,0.05,0,0)" xlink:href="#bh"/><use transform="matrix(0.05,0,0,0.05,16.599999999999998,0)" xlink:href="#as"/><use transform="matrix(0.05,0,0,0.05,26.599999999999994,0)" xlink:href="#as"/><use transform="matrix(0.05,0,0,0.05,36.599999999999994,0)" xlink:href="#bi"/><use transform="matrix(0.05,0,0,0.05,45.599999999999994,0)" xlink:href="#aD"/><use transform="matrix(0.05,0,0,0.05,49.55,0)" xlink:href="#aM"/><use transform="matrix(0.05,0,0,0.05,58.54999999999999,0)" xlink:href="#aN"/><use transform="matrix(0.05,0,0,0.05,70.55,0)" xlink:href="#aB"/><use transform="matrix(0.05,0,0,0.05,79.55,0)" xlink:href="#bd"/><use transform="matrix(0.05,0,0,0.05,89.55,0)" xlink:href="#as"/><use transform="matrix(0.05,0,0,0.05,99.55,0)" xlink:href="#aI"/><use transform="matrix(0.05,0,0,0.05,109.55000000000001,0)" xlink:href="#aL"/><use transform="matrix(0.05,0,0,0.05,119.55000000000001,0)" xlink:href="#aD"/><use transform="matrix(0.05,0,0,0.05,123.5,0)" xlink:href="#as"/></g><g id="R"><use transform="matrix(0.05,0,0,0.05,0,0)" xlink:href="#ay"/><use transform="matrix(0.05,0,0,0.05,12.950000000000001,0)" xlink:href="#aC"/><use transform="matrix(0.05,0,0,0.05,22.950000000000003,0)" xlink:href="#aM"/></g><path d="M26 75v-336h71v23H56V52h41v23H26" id="bj"/><path d="M110-160c48 1 74 30 74 79 0 53-28 85-80 85-65 0-83-55-86-122-5-90 50-162 133-122 14 7 22 21 27 39l-31 6c-5-40-67-38-82-6-9 19-15 44-15 74 11-20 30-34 60-33zm-7 138c34 0 49-23 49-58s-16-56-50-56c-29 0-50 16-49 49 1 36 15 65 50 65" id="bk"/><path d="M3 75V52h41v-290H3v-23h71V75H3" id="bl"/><g id="S"><use transform="matrix(0.05,0,0,0.05,0,0)" xlink:href="#au"/><use transform="matrix(0.05,0,0,0.05,5,0)" xlink:href="#bd"/><use transform="matrix(0.05,0,0,0.05,15,0)" xlink:href="#aw"/><use transform="matrix(0.05,0,0,0.05,18.95,0)" xlink:href="#aG"/><use transform="matrix(0.05,0,0,0.05,27.950000000000003,0)" xlink:href="#bh"/><use transform="matrix(0.05,0,0,0.05,44.55,0)" xlink:href="#as"/><use transform="matrix(0.05,0,0,0.05,54.54999999999999,0)" xlink:href="#as"/><use transform="matrix(0.05,0,0,0.05,64.55,0)" xlink:href="#bi"/><use transform="matrix(0.05,0,0,0.05,73.55,0)" xlink:href="#bj"/><use transform="matrix(0.05,0,0,0.05,78.55,0)" xlink:href="#bk"/><use transform="matrix(0.05,0,0,0.05,88.55,0)" xlink:href="#bl"/></g><g id="T"><use transform="matrix(0.05,0,0,0.05,0,0)" xlink:href="#bc"/><use transform="matrix(0.05,0,0,0.05,5,0)" xlink:href="#bc"/><use transform="matrix(0.05,0,0,0.05,10,0)" xlink:href="#aS"/><use transform="matrix(0.05,0,0,0.05,24.950000000000003,0)" xlink:href="#aA"/><use transform="matrix(0.05,0,0,0.05,34.95,0)" xlink:href="#at"/><use transform="matrix(0.05,0,0,0.05,44.95,0)" xlink:href="#av"/><use transform="matrix(0.05,0,0,0.05,50.900000000000006,0)" xlink:href="#aN"/><use transform="matrix(0.05,0,0,0.05,62.900000000000006,0)" xlink:href="#aL"/><use transform="matrix(0.05,0,0,0.05,72.9,0)" xlink:href="#at"/></g><g id="U"><use transform="matrix(0.05,0,0,0.05,0,0)" xlink:href="#aB"/><use transform="matrix(0.05,0,0,0.05,9,0)" xlink:href="#aC"/><use transform="matrix(0.05,0,0,0.05,19,0)" xlink:href="#aD"/><use transform="matrix(0.05,0,0,0.05,22.95,0)" xlink:href="#as"/><use transform="matrix(0.05,0,0,0.05,32.95,0)" xlink:href="#at"/><use transform="matrix(0.05,0,0,0.05,42.95,0)" xlink:href="#aI"/><use transform="matrix(0.05,0,0,0.05,52.95,0)" xlink:href="#aC"/><use transform="matrix(0.05,0,0,0.05,62.95,0)" xlink:href="#aH"/><use transform="matrix(0.05,0,0,0.05,68.9,0)" xlink:href="#bh"/><use transform="matrix(0.05,0,0,0.05,85.50000000000001,0)" xlink:href="#as"/><use transform="matrix(0.05,0,0,0.05,95.50000000000001,0)" xlink:href="#as"/><use transform="matrix(0.05,0,0,0.05,105.5,0)" xlink:href="#bi"/></g><g id="V"><use transform="matrix(0.05,0,0,0.05,0,0)" xlink:href="#aU"/><use transform="matrix(0.05,0,0,0.05,12,0)" xlink:href="#aA"/><use transform="matrix(0.05,0,0,0.05,22,0)" xlink:href="#at"/><use transform="matrix(0.05,0,0,0.05,32,0)" xlink:href="#aG"/><use transform="matrix(0.05,0,0,0.05,41,0)" xlink:href="#au"/><use transform="matrix(0.05,0,0,0.05,46,0)" xlink:href="#aH"/><use transform="matrix(0.05,0,0,0.05,51.95,0)" xlink:href="#aL"/><use transform="matrix(0.05,0,0,0.05,61.95,0)" xlink:href="#bi"/><use transform="matrix(0.05,0,0,0.05,70.95,0)" xlink:href="#au"/><use transform="matrix(0.05,0,0,0.05,75.95,0)" xlink:href="#aA"/><use transform="matrix(0.05,0,0,0.05,85.95,0)" xlink:href="#aH"/><use transform="matrix(0.05,0,0,0.05,91.9,0)" xlink:href="#as"/><use transform="matrix(0.05,0,0,0.05,101.9,0)" xlink:href="#at"/></g><path d="M85 4C-4 8 31-112 24-190h32v120c0 31 7 50 39 49 72-2 45-101 50-169h31l1 190h-30c-1-10 1-25-2-33-11 22-28 36-60 37zm34-218v-33h29v33h-29zm-69 0v-33h29v33H50" id="bm"/><g id="W"><use transform="matrix(0.05,0,0,0.05,0,0)" xlink:href="#aK"/><use transform="matrix(0.05,0,0,0.05,5,0)" xlink:href="#bm"/><use transform="matrix(0.05,0,0,0.05,15,0)" xlink:href="#aH"/></g><g id="X"><use transform="matrix(0.05,0,0,0.05,0,0)" xlink:href="#aC"/><use transform="matrix(0.05,0,0,0.05,10,0)" xlink:href="#aD"/><use transform="matrix(0.05,0,0,0.05,13.949999999999998,0)" xlink:href="#aD"/><use transform="matrix(0.05,0,0,0.05,17.9,0)" xlink:href="#as"/><use transform="matrix(0.05,0,0,0.05,27.899999999999995,0)" xlink:href="#aG"/></g><g id="Y"><use transform="matrix(0.05,0,0,0.05,0,0)" xlink:href="#aF"/><use transform="matrix(0.05,0,0,0.05,14.950000000000001,0)" xlink:href="#aC"/><use transform="matrix(0.05,0,0,0.05,24.950000000000003,0)" xlink:href="#aP"/></g><g id="Z"><use transform="matrix(0.05,0,0,0.05,0,0)" xlink:href="#aA"/><use transform="matrix(0.05,0,0,0.05,10,0)" xlink:href="#aP"/><use transform="matrix(0.05,0,0,0.05,20,0)" xlink:href="#au"/><use transform="matrix(0.05,0,0,0.05,25,0)" xlink:href="#aw"/><use transform="matrix(0.05,0,0,0.05,28.950000000000003,0)" xlink:href="#aA"/><use transform="matrix(0.05,0,0,0.05,38.95,0)" xlink:href="#at"/><use transform="matrix(0.05,0,0,0.05,48.95,0)" xlink:href="#aC"/><use transform="matrix(0.05,0,0,0.05,58.95,0)" xlink:href="#aD"/><use transform="matrix(0.05,0,0,0.05,62.900000000000006,0)" xlink:href="#as"/></g><g id="aa"><use transform="matrix(0.05,0,0,0.05,0,0)" xlink:href="#aP"/><use transform="matrix(0.05,0,0,0.05,10,0)" xlink:href="#aC"/><use transform="matrix(0.05,0,0,0.05,20,0)" xlink:href="#aH"/><use transform="matrix(0.05,0,0,0.05,25.950000000000003,0)" xlink:href="#aC"/><use transform="matrix(0.05,0,0,0.05,35.95,0)" xlink:href="#aF"/><use transform="matrix(0.05,0,0,0.05,50.900000000000006,0)" xlink:href="#as"/><use transform="matrix(0.05,0,0,0.05,60.900000000000006,0)" xlink:href="#au"/><use transform="matrix(0.05,0,0,0.05,65.9,0)" xlink:href="#as"/><use transform="matrix(0.05,0,0,0.05,75.9,0)" xlink:href="#aH"/></g><path d="M232-93c-1 65-40 97-104 97C67 4 28-28 28-90v-158h33c8 89-33 224 67 224 102 0 64-133 71-224h33v155" id="bn"/><g id="ab"><use transform="matrix(0.05,0,0,0.05,0,0)" xlink:href="#bn"/><use transform="matrix(0.05,0,0,0.05,12.950000000000001,0)" xlink:href="#aG"/><use transform="matrix(0.05,0,0,0.05,21.950000000000003,0)" xlink:href="#as"/><use transform="matrix(0.05,0,0,0.05,31.950000000000003,0)" xlink:href="#aH"/></g><g id="ac"><use transform="matrix(0.05,0,0,0.05,0,0)" xlink:href="#aL"/><use transform="matrix(0.05,0,0,0.05,10,0)" xlink:href="#aG"/><use transform="matrix(0.05,0,0,0.05,19,0)" xlink:href="#as"/><use transform="matrix(0.05,0,0,0.05,29,0)" xlink:href="#aH"/><use transform="matrix(0.05,0,0,0.05,34.95,0)" xlink:href="#at"/><use transform="matrix(0.05,0,0,0.05,44.95,0)" xlink:href="#aC"/><use transform="matrix(0.05,0,0,0.05,54.95,0)" xlink:href="#aF"/><use transform="matrix(0.05,0,0,0.05,69.9,0)" xlink:href="#as"/></g><g id="ad"><use transform="matrix(0.05,0,0,0.05,0,0)" xlink:href="#as"/><use transform="matrix(0.05,0,0,0.05,10,0)" xlink:href="#aS"/><use transform="matrix(0.05,0,0,0.05,24.950000000000003,0)" xlink:href="#aC"/><use transform="matrix(0.05,0,0,0.05,34.95,0)" xlink:href="#aw"/><use transform="matrix(0.05,0,0,0.05,38.900000000000006,0)" xlink:href="#aD"/></g><path d="M206 0h-36l-40-164L89 0H53L-1-190h32L70-26l43-164h34l41 164 42-164h31" id="bo"/><path d="M197 0v-115H63V0H30v-248h33v105h134v-105h34V0h-34" id="bp"/><g id="ae"><use transform="matrix(0.05,0,0,0.05,0,0)" xlink:href="#aP"/><use transform="matrix(0.05,0,0,0.05,10,0)" xlink:href="#aC"/><use transform="matrix(0.05,0,0,0.05,20,0)" xlink:href="#aG"/><use transform="matrix(0.05,0,0,0.05,29,0)" xlink:href="#aG"/><use transform="matrix(0.05,0,0,0.05,38,0)" xlink:href="#bo"/><use transform="matrix(0.05,0,0,0.05,50.95,0)" xlink:href="#aA"/><use transform="matrix(0.05,0,0,0.05,60.95,0)" xlink:href="#aH"/><use transform="matrix(0.05,0,0,0.05,66.9,0)" xlink:href="#aI"/><use transform="matrix(0.05,0,0,0.05,76.9,0)" xlink:href="#bp"/><use transform="matrix(0.05,0,0,0.05,89.85000000000001,0)" xlink:href="#aC"/><use transform="matrix(0.05,0,0,0.05,99.85000000000001,0)" xlink:href="#aG"/><use transform="matrix(0.05,0,0,0.05,108.85000000000001,0)" xlink:href="#bd"/></g><g id="af"><use transform="matrix(0.05,0,0,0.05,0,0)" xlink:href="#aK"/><use transform="matrix(0.05,0,0,0.05,5,0)" xlink:href="#as"/><use transform="matrix(0.05,0,0,0.05,15,0)" xlink:href="#aI"/><use transform="matrix(0.05,0,0,0.05,25,0)" xlink:href="#as"/><use transform="matrix(0.05,0,0,0.05,35,0)" xlink:href="#aH"/><use transform="matrix(0.05,0,0,0.05,40.95,0)" xlink:href="#aC"/><use transform="matrix(0.05,0,0,0.05,50.95,0)" xlink:href="#aD"/><use transform="matrix(0.05,0,0,0.05,54.900000000000006,0)" xlink:href="#aN"/><use transform="matrix(0.05,0,0,0.05,66.9,0)" xlink:href="#au"/><use transform="matrix(0.05,0,0,0.05,71.9,0)" xlink:href="#aC"/><use transform="matrix(0.05,0,0,0.05,81.9,0)" xlink:href="#au"/><use transform="matrix(0.05,0,0,0.05,86.9,0)" xlink:href="#as"/></g><g id="ag"><use transform="matrix(0.05,0,0,0.05,0,0)" xlink:href="#bn"/><use transform="matrix(0.05,0,0,0.05,12.950000000000001,0)" xlink:href="#aG"/><use transform="matrix(0.05,0,0,0.05,21.950000000000003,0)" xlink:href="#as"/><use transform="matrix(0.05,0,0,0.05,31.950000000000003,0)" xlink:href="#aH"/><use transform="matrix(0.05,0,0,0.05,37.900000000000006,0)" xlink:href="#aR"/><use transform="matrix(0.05,0,0,0.05,43.85000000000001,0)" xlink:href="#aw"/><use transform="matrix(0.05,0,0,0.05,47.80000000000001,0)" xlink:href="#at"/><use transform="matrix(0.05,0,0,0.05,57.80000000000001,0)" xlink:href="#au"/></g><g id="ah"><use transform="matrix(0.05,0,0,0.05,0,0)" xlink:href="#aL"/><use transform="matrix(0.05,0,0,0.05,10,0)" xlink:href="#aG"/><use transform="matrix(0.05,0,0,0.05,19,0)" xlink:href="#as"/><use transform="matrix(0.05,0,0,0.05,29,0)" xlink:href="#aH"/><use transform="matrix(0.05,0,0,0.05,34.95,0)" xlink:href="#ax"/><use transform="matrix(0.05,0,0,0.05,39.95,0)" xlink:href="#ay"/><use transform="matrix(0.05,0,0,0.05,52.900000000000006,0)" xlink:href="#aV"/></g><g id="ai"><use transform="matrix(0.05,0,0,0.05,0,0)" xlink:href="#aL"/><use transform="matrix(0.05,0,0,0.05,10,0)" xlink:href="#aG"/><use transform="matrix(0.05,0,0,0.05,19,0)" xlink:href="#as"/><use transform="matrix(0.05,0,0,0.05,29,0)" xlink:href="#aH"/><use transform="matrix(0.05,0,0,0.05,34.95,0)" xlink:href="#at"/><use transform="matrix(0.05,0,0,0.05,44.95,0)" xlink:href="#aC"/><use transform="matrix(0.05,0,0,0.05,54.95,0)" xlink:href="#aF"/><use transform="matrix(0.05,0,0,0.05,69.9,0)" xlink:href="#as"/><use transform="matrix(0.05,0,0,0.05,79.9,0)" xlink:href="#aV"/></g><g id="aj"><use transform="matrix(0.05,0,0,0.05,0,0)" xlink:href="#as"/><use transform="matrix(0.05,0,0,0.05,10,0)" xlink:href="#aS"/><use transform="matrix(0.05,0,0,0.05,24.950000000000003,0)" xlink:href="#aC"/><use transform="matrix(0.05,0,0,0.05,34.95,0)" xlink:href="#aw"/><use transform="matrix(0.05,0,0,0.05,38.900000000000006,0)" xlink:href="#aD"/><use transform="matrix(0.05,0,0,0.05,42.85000000000001,0)" xlink:href="#aV"/></g><g id="ak"><use transform="matrix(0.05,0,0,0.05,0,0)" xlink:href="#aP"/><use transform="matrix(0.05,0,0,0.05,10,0)" xlink:href="#aC"/><use transform="matrix(0.05,0,0,0.05,20,0)" xlink:href="#aG"/><use transform="matrix(0.05,0,0,0.05,29,0)" xlink:href="#aG"/><use transform="matrix(0.05,0,0,0.05,38,0)" xlink:href="#bo"/><use transform="matrix(0.05,0,0,0.05,50.95,0)" xlink:href="#aA"/><use transform="matrix(0.05,0,0,0.05,60.95,0)" xlink:href="#aH"/><use transform="matrix(0.05,0,0,0.05,66.9,0)" xlink:href="#aI"/><use transform="matrix(0.05,0,0,0.05,76.9,0)" xlink:href="#bp"/><use transform="matrix(0.05,0,0,0.05,89.85000000000001,0)" xlink:href="#aC"/><use transform="matrix(0.05,0,0,0.05,99.85000000000001,0)" xlink:href="#aG"/><use transform="matrix(0.05,0,0,0.05,108.85000000000001,0)" xlink:href="#bd"/><use transform="matrix(0.05,0,0,0.05,118.85000000000001,0)" xlink:href="#aV"/></g><g id="al"><use transform="matrix(0.05,0,0,0.05,0,0)" xlink:href="#as"/><use transform="matrix(0.05,0,0,0.05,10,0)" xlink:href="#at"/><use transform="matrix(0.05,0,0,0.05,20,0)" xlink:href="#aL"/><use transform="matrix(0.05,0,0,0.05,30,0)" xlink:href="#aF"/></g><g id="am"><use transform="matrix(0.05,0,0,0.05,0,0)" xlink:href="#aK"/><use transform="matrix(0.05,0,0,0.05,5,0)" xlink:href="#as"/><use transform="matrix(0.05,0,0,0.05,15,0)" xlink:href="#aI"/><use transform="matrix(0.05,0,0,0.05,25,0)" xlink:href="#as"/><use transform="matrix(0.05,0,0,0.05,35,0)" xlink:href="#aH"/><use transform="matrix(0.05,0,0,0.05,40.95,0)" xlink:href="#aC"/><use transform="matrix(0.05,0,0,0.05,50.95,0)" xlink:href="#aD"/><use transform="matrix(0.05,0,0,0.05,54.900000000000006,0)" xlink:href="#aN"/><use transform="matrix(0.05,0,0,0.05,66.9,0)" xlink:href="#au"/><use transform="matrix(0.05,0,0,0.05,71.9,0)" xlink:href="#aC"/><use transform="matrix(0.05,0,0,0.05,81.9,0)" xlink:href="#au"/><use transform="matrix(0.05,0,0,0.05,86.9,0)" xlink:href="#as"/><use transform="matrix(0.05,0,0,0.05,96.9,0)" xlink:href="#aZ"/></g><g id="an"><use transform="matrix(0.05,0,0,0.05,0,0)" xlink:href="#bf"/><use transform="matrix(0.05,0,0,0.05,12.950000000000001,0)" xlink:href="#aH"/><use transform="matrix(0.05,0,0,0.05,18.900000000000002,0)" xlink:href="#as"/><use transform="matrix(0.05,0,0,0.05,28.900000000000002,0)" xlink:href="#aC"/><use transform="matrix(0.05,0,0,0.05,38.900000000000006,0)" xlink:href="#au"/><use transform="matrix(0.05,0,0,0.05,43.900000000000006,0)" xlink:href="#as"/><use transform="matrix(0.05,0,0,0.05,53.900000000000006,0)" xlink:href="#aq"/><use transform="matrix(0.05,0,0,0.05,65.9,0)" xlink:href="#ar"/><use transform="matrix(0.05,0,0,0.05,74.9,0)" xlink:href="#as"/><use transform="matrix(0.05,0,0,0.05,84.9,0)" xlink:href="#at"/><use transform="matrix(0.05,0,0,0.05,94.9,0)" xlink:href="#au"/><use transform="matrix(0.05,0,0,0.05,99.9,0)" xlink:href="#aR"/><use transform="matrix(0.05,0,0,0.05,105.85000000000001,0)" xlink:href="#aZ"/></g><g id="ao"><use transform="matrix(0.05,0,0,0.05,0,0)" xlink:href="#bf"/><use transform="matrix(0.05,0,0,0.05,12.950000000000001,0)" xlink:href="#aC"/><use transform="matrix(0.05,0,0,0.05,22.950000000000003,0)" xlink:href="#aD"/><use transform="matrix(0.05,0,0,0.05,26.900000000000002,0)" xlink:href="#as"/><use transform="matrix(0.05,0,0,0.05,36.900000000000006,0)" xlink:href="#at"/><use transform="matrix(0.05,0,0,0.05,46.900000000000006,0)" xlink:href="#aI"/><use transform="matrix(0.05,0,0,0.05,56.900000000000006,0)" xlink:href="#aC"/><use transform="matrix(0.05,0,0,0.05,66.9,0)" xlink:href="#as"/><use transform="matrix(0.05,0,0,0.05,76.9,0)" xlink:href="#aH"/><use transform="matrix(0.05,0,0,0.05,82.85000000000001,0)" xlink:href="#aw"/></g><g id="ap"><use transform="matrix(0.05,0,0,0.05,0,0)" xlink:href="#aF"/><use transform="matrix(0.05,0,0,0.05,14.950000000000001,0)" xlink:href="#aC"/><use transform="matrix(0.05,0,0,0.05,24.950000000000003,0)" xlink:href="#aw"/><use transform="matrix(0.05,0,0,0.05,28.900000000000002,0)" xlink:href="#at"/><use transform="matrix(0.05,0,0,0.05,38.900000000000006,0)" xlink:href="#aR"/><use transform="matrix(0.05,0,0,0.05,44.85000000000001,0)" xlink:href="#aZ"/></g></defs></g></svg>